# Blender v3.2.2 OBJ File: 'sample_vertices.blend'
# www.blender.org
mtllib edges.mtl
o Cube
v 1.000000 1.000000 1.000000
v 1.000000 1.000000 -1.000000
v 1.000000 -1.000000 1.000000
v 1.000000 -1.000000 -1.000000
v -1.000000 1.000000 1.000000
v -1.000000 1.000000 -1.000000
v -1.000000 -1.000000 1.000000
v -1.000000 -1.000000 -1.000000
vt 0.625000 0.500000
vt 0.875000 0.500000
vt 0.875000 0.750000
vt 0.625000 0.750000
vt 0.375000 0.750000
vt 0.625000 1.000000
vt 0.375000 1.000000
vt 0.375000 0.000000
vt 0.625000 0.000000
vt 0.625000 0.250000
vt 0.375000 0.250000
vt 0.125000 0.500000
vt 0.375000 0.500000
vt 0.125000 0.750000
vn 0.0000 0.0000 1.0000
vn 0.0000 -1.0000 0.0000
vn -1.0000 0.0000 0.0000
vn 0.0000 0.0000 -1.0000
vn 1.0000 0.0000 0.0000
vn 0.0000 1.0000 0.0000
usemtl Material
s off
f 1/1/1 5/2/1 7/3/1 3/4/1
f 4/5/2 3/4/2 7/6/2 8/7/2
f 8/8/3 7/9/3 5/10/3 6/11/3
f 6/12/4 2/13/4 4/5/4 8/14/4
f 2/13/5 1/1/5 3/4/5 4/5/5
f 6/11/6 5/10/6 1/1/6 2/13/6
o Plane
v 0.180622 -0.792035 0.872937
v 0.839842 -0.792035 0.872937
v 0.839842 -0.132815 0.872937
v 0.180622 -0.792035 -0.855517
v 0.839842 -0.792035 -0.855517
v 0.180622 -0.132815 -0.855517
v 0.839842 -0.132815 -0.855517
v 0.180622 0.206137 -0.855517
v 0.839842 0.206137 -0.855517
v 0.180622 0.865357 -0.855517
v 0.839842 0.865357 -0.855517
v 0.180622 0.206137 -0.574620
v 0.839842 0.206137 -0.574620
v 0.180622 0.865357 -0.574620
v 0.839842 0.865357 -0.574620
v -0.856361 0.206137 -0.574620
v -0.197140 0.206137 -0.574620
v -0.856361 0.865357 -0.574620
v -0.197140 0.865357 -0.574620
v -0.831047 -0.716056 -0.250854
v -0.175393 -0.738549 -0.315540
v -0.878107 -0.411675 -0.833700
v -0.222454 -0.434168 -0.898386
vt 0.000000 0.000000
vt 1.000000 0.000000
vt 1.000000 1.000000
vt 0.000000 0.000000
vt 1.000000 0.000000
vt 1.000000 1.000000
vt 0.000000 1.000000
vt 0.000000 0.000000
vt 1.000000 0.000000
vt 1.000000 1.000000
vt 0.000000 1.000000
vt 0.000000 0.000000
vt 1.000000 0.000000
vt 1.000000 1.000000
vt 0.000000 1.000000
vt 0.000000 0.000000
vt 1.000000 0.000000
vt 1.000000 1.000000
vt 0.000000 1.000000
vt 0.000000 0.000000
vt 1.000000 0.000000
vt 1.000000 1.000000
vt 0.000000 1.000000
vn 0.0000 0.0000 1.0000
vn 0.0755 0.8864 0.4568
usemtl None
s off
f 9/15/7 10/16/7 11/17/7
f 12/18/7 13/19/7 15/20/7
f 15/20/7 14/21/7 12/18/7
f 16/22/7 17/23/7 19/24/7
f 19/24/7 18/25/7 16/22/7
f 20/26/7 21/27/7 23/28/7
f 23/28/7 22/29/7 20/26/7
f 24/30/7 25/31/7 27/32/7
f 27/32/7 26/33/7 24/30/7
f 28/34/8 29/35/8 31/36/8
f 31/36/8 30/37/8 28/34/8
o Cube.001
v -1.000000 1.000000 1.000000
o Plane.001
v 0.704322 -0.556203 1.457080
v 0.588920 0.282920 0.897395
v 0.685161 -0.552613 0.416067
v 0.527634 1.248922 1.281024
v 1.033885 -1.233302 1.656322
v 1.014723 -1.229712 0.615309
v -1.276976 -0.963908 0.421172
v -1.688816 -0.014763 0.537789
v 0.377957 0.496659 -0.175424
v 0.358795 0.500248 -1.216437
v -0.537068 -0.457895 -0.408554
v -0.546445 -0.774838 -0.807378
l 37 38
l 39 40
l 36 34
l 33 35
l 41 42
l 43 44
