# Blender v3.2.2 OBJ File: 'sample_vertices.blend'
# www.blender.org
mtllib untitled.mtl
o Plane
v 0.180622 -0.792035 0.872937
v 0.839842 -0.792035 0.872937
v 0.839842 -0.132815 0.872937
v 0.180622 -0.792035 -0.855517
v 0.839842 -0.792035 -0.855517
v 0.180622 -0.132815 -0.855517
v 0.839842 -0.132815 -0.855517
v 0.180622 0.206137 -0.855517
v 0.839842 0.206137 -0.855517
v 0.180622 0.865357 -0.855517
v 0.839842 0.865357 -0.855517
v 0.180622 0.206137 -0.574620
v 0.839842 0.206137 -0.574620
v 0.180622 0.865357 -0.574620
v 0.839842 0.865357 -0.574620
v -0.856361 0.206137 -0.574620
v -0.197140 0.206137 -0.574620
v -0.856361 0.865357 -0.574620
v -0.197140 0.865357 -0.574620
v -0.831047 -0.716056 -0.250854
v -0.175393 -0.738549 -0.315540
v -0.878107 -0.411675 -0.833700
v -0.222454 -0.434168 -0.898386
vt 0.000000 0.000000
vt 1.000000 0.000000
vt 1.000000 1.000000
vt 0.000000 0.000000
vt 1.000000 0.000000
vt 1.000000 1.000000
vt 0.000000 1.000000
vt 0.000000 0.000000
vt 1.000000 0.000000
vt 1.000000 1.000000
vt 0.000000 1.000000
vt 0.000000 0.000000
vt 1.000000 0.000000
vt 1.000000 1.000000
vt 0.000000 1.000000
vt 0.000000 0.000000
vt 1.000000 0.000000
vt 1.000000 1.000000
vt 0.000000 1.000000
vt 0.000000 0.000000
vt 1.000000 0.000000
vt 1.000000 1.000000
vt 0.000000 1.000000
vn 0.0000 0.0000 1.0000
vn 0.0755 0.8864 0.4568
usemtl None
s off
f 1/1/1 2/2/1 3/3/1
f 4/4/1 5/5/1 7/6/1
f 7/6/1 6/7/1 4/4/1
f 8/8/1 9/9/1 11/10/1
f 11/10/1 10/11/1 8/8/1
f 12/12/1 13/13/1 15/14/1
f 15/14/1 14/15/1 12/12/1
f 16/16/1 17/17/1 19/18/1
f 19/18/1 18/19/1 16/16/1
f 20/20/2 21/21/2 23/22/2
f 23/22/2 22/23/2 20/20/2
